<?xml version="1.0" standalone="no"?>
<!DOCTYPE svg PUBLIC "-//W3C//DTD SVG 20010904//EN"
 "http://www.w3.org/TR/2001/REC-SVG-20010904/DTD/svg10.dtd">
<svg version="1.0" xmlns="http://www.w3.org/2000/svg"
 width="550.000000pt" height="200.000000pt" viewBox="0 0 550.000000 200.000000"
 preserveAspectRatio="xMidYMid meet">

<g transform="translate(0.000000,200.000000) scale(0.100000,-0.100000)"
fill="#000000" stroke="none">
<path d="M2113 1381 c-49 -31 -54 -103 -9 -140 22 -18 20 -44 -3 -65 -23 -21
-35 -67 -26 -97 4 -11 22 -27 41 -35 67 -28 121 25 149 147 15 66 15 72 -3
112 -37 81 -94 111 -149 78z m87 -68 c30 -34 32 -40 25 -87 -9 -74 -45 -141
-76 -141 -33 0 -35 25 -5 70 33 48 33 85 1 115 -27 25 -33 65 -12 73 25 11 36
6 67 -30z"/>
<path d="M1334 1360 c-35 -14 -74 -69 -74 -104 0 -47 29 -69 91 -70 44 -1 54
3 75 27 48 56 39 126 -18 146 -36 13 -45 13 -74 1z m74 -67 c2 -12 -2 -31 -8
-43 -9 -17 -19 -21 -53 -18 -52 4 -60 26 -22 63 32 33 78 32 83 -2z"/>
<path d="M4513 1356 c-22 -8 -55 -23 -72 -35 -17 -12 -31 -18 -31 -12 0 6 -9
20 -20 31 -28 28 -171 29 -198 2 -18 -18 -19 -18 -42 0 -21 17 -35 19 -104 14
-45 -2 -87 -4 -93 -4 -13 0 -195 0 -230 0 -10 0 -71 2 -136 4 -93 4 -123 2
-141 -9 -19 -13 -25 -13 -41 -1 -13 10 -51 14 -132 14 -108 0 -115 -1 -138
-25 -14 -13 -25 -30 -25 -36 0 -7 -10 -3 -22 9 -38 35 -77 44 -225 49 -199 8
-193 13 -194 -160 l-1 -132 -22 133 c-17 107 -25 137 -41 149 -25 18 -277 15
-296 -4 -6 -6 -32 -165 -57 -353 l-46 -343 23 -18 c19 -15 40 -19 110 -19 59
0 93 5 106 14 16 12 22 12 41 0 17 -12 71 -14 280 -12 242 3 262 4 302 25 l43
21 25 -25 c23 -23 29 -24 112 -20 48 3 93 5 100 5 6 0 41 0 77 0 36 0 72 0 80
0 8 0 56 0 105 0 50 0 99 0 110 0 11 0 65 0 120 0 55 0 106 0 113 0 6 0 47 -2
90 -5 57 -3 84 -1 100 9 18 12 26 12 47 1 14 -7 59 -13 103 -13 64 0 80 3 97
20 11 11 20 26 20 34 0 10 17 5 56 -19 99 -60 231 -56 317 9 51 39 66 77 66
171 1 95 -13 139 -61 191 -40 44 -40 44 -14 44 14 0 36 10 47 21 19 19 21 29
16 91 -9 111 -55 165 -158 187 -64 14 -113 13 -166 -3z m179 -46 c20 -6 50
-26 67 -46 27 -30 31 -42 31 -94 l0 -60 -80 0 -80 0 0 44 c0 49 -13 65 -36 45
-9 -8 -14 -25 -12 -48 3 -37 2 -36 134 -131 71 -51 88 -87 88 -184 0 -85 -11
-119 -48 -146 -62 -45 -175 -53 -246 -17 -63 32 -80 60 -87 145 l-6 72 82 0
81 0 0 -48 c0 -56 17 -86 43 -76 13 5 17 18 17 54 0 56 -3 60 -107 132 -93 66
-113 100 -113 196 0 81 23 126 80 154 40 20 134 24 192 8z m-2060 -315 c26
-171 47 -316 48 -322 0 -10 -23 -13 -85 -13 l-85 0 0 38 c0 67 -9 82 -46 82
l-34 0 0 -60 0 -60 -90 0 c-89 0 -90 0 -85 23 2 12 21 141 40 287 19 146 38
282 41 303 l6 38 121 -3 122 -3 47 -310z m398 293 c66 -33 73 -56 78 -244 6
-229 -2 -307 -38 -347 l-28 -32 -166 -3 -166 -3 0 325 0 326 138 0 c123 0 143
-2 182 -22z m354 5 c3 -10 12 -70 21 -133 9 -63 17 -119 19 -125 2 -5 11 54
21 133 l19 142 113 0 113 0 0 -325 0 -325 -80 0 -80 0 -1 188 -1 187 -24 -175
c-13 -96 -23 -181 -24 -187 0 -9 -18 -13 -54 -13 l-54 0 -11 83 c-7 45 -18
125 -25 177 l-13 95 -7 -177 -8 -178 -74 0 -74 0 0 325 0 325 109 0 c96 0 110
-2 115 -17z m536 -308 l0 -325 -85 0 -85 0 0 325 0 325 85 0 85 0 0 -325z
m252 188 l46 -138 1 138 1 137 70 0 70 0 0 -325 0 -325 -74 0 -75 0 -26 88
c-55 184 -53 183 -54 40 l-1 -128 -75 0 -75 0 0 325 0 325 73 0 73 0 46 -137z
m267 -207 l22 -23 -25 -5 c-23 -5 -26 -2 -26 23 0 35 1 35 29 5z"/>
<path d="M2452 1036 c-18 -141 -17 -146 16 -146 l28 0 -13 116 c-6 64 -14 118
-16 120 -2 2 -9 -38 -15 -90z"/>
<path d="M2880 985 c0 -170 3 -215 13 -215 33 0 37 23 37 221 0 204 -1 209
-41 209 -5 0 -9 -91 -9 -215z"/>
<path d="M917 1320 c-69 -12 -167 -61 -210 -105 -76 -78 -57 -192 44 -265 24
-17 87 -44 141 -62 54 -17 98 -34 98 -39 0 -5 -24 -21 -52 -36 -56 -28 -148
-37 -215 -20 -46 12 -83 -25 -83 -82 0 -46 28 -74 93 -92 119 -32 351 62 413
167 22 37 26 53 21 92 -8 71 -58 111 -196 157 -121 40 -147 55 -138 78 11 30
68 51 142 51 65 1 70 0 73 -22 5 -30 43 -55 75 -47 39 10 59 40 65 95 4 46 2
52 -29 83 -50 50 -130 65 -242 47z m197 -63 c34 -23 43 -60 22 -92 -21 -32
-46 -33 -46 -1 0 39 -26 51 -104 50 -109 -1 -206 -49 -206 -104 0 -47 42 -75
181 -120 105 -35 141 -57 159 -100 17 -40 0 -80 -53 -125 -100 -86 -264 -128
-352 -91 -35 15 -44 37 -26 64 6 11 19 11 67 1 50 -10 69 -9 124 5 119 31 202
105 155 139 -9 7 -64 28 -121 46 -84 26 -113 41 -150 74 -94 87 -72 173 63
241 53 26 103 35 185 32 51 -2 85 -8 102 -19z"/>
<path d="M1797 1320 c-102 -18 -224 -95 -248 -157 -15 -41 -10 -88 16 -139
l26 -49 -58 -53 c-78 -72 -142 -110 -154 -91 -12 19 -11 93 2 163 13 71 7 101
-26 122 -32 21 -86 4 -114 -35 -36 -50 -44 -219 -16 -312 33 -108 154 -148
250 -83 43 29 45 29 45 5 0 -25 42 -58 93 -72 119 -32 351 62 413 167 22 37
26 53 21 92 -8 71 -58 111 -196 157 -121 40 -147 55 -138 78 11 30 68 51 142
51 65 1 70 0 73 -22 5 -30 43 -55 75 -47 39 10 59 40 65 95 4 46 2 52 -29 83
-50 50 -130 65 -242 47z m197 -63 c34 -23 43 -60 22 -92 -21 -32 -46 -33 -46
-1 0 39 -26 51 -104 50 -109 -1 -206 -49 -206 -104 0 -47 42 -75 181 -120 105
-35 141 -57 159 -100 17 -40 0 -80 -53 -125 -100 -86 -264 -128 -352 -91 -35
15 -44 37 -26 64 6 11 19 11 67 1 50 -10 69 -9 124 5 120 31 206 109 154 140
-13 8 -206 76 -240 86 -1 0 -5 -11 -8 -25 -9 -34 -181 -206 -228 -228 -73 -34
-127 -17 -164 53 -15 28 -19 57 -19 142 0 93 3 110 21 135 12 15 31 30 44 31
22 4 22 3 14 -80 -14 -143 -1 -218 39 -226 32 -6 110 43 194 122 46 43 83 83
83 89 0 6 -12 23 -26 38 -33 35 -45 87 -29 126 20 47 103 103 182 123 58 14
187 6 217 -13z m-194 -378 c39 -11 70 -25 70 -30 0 -5 -23 -20 -52 -35 -55
-28 -148 -42 -185 -27 -22 8 -21 10 24 66 28 34 52 56 60 53 8 -3 45 -15 83
-27z"/>
</g>
</svg>
