<?xml version="1.0" standalone="no"?>
<!DOCTYPE svg PUBLIC "-//W3C//DTD SVG 20010904//EN"
 "http://www.w3.org/TR/2001/REC-SVG-20010904/DTD/svg10.dtd">
<svg version="1.0" xmlns="http://www.w3.org/2000/svg"
 width="1012.000000pt" height="506.000000pt" viewBox="0 0 1012.000000 506.000000"
 preserveAspectRatio="xMidYMid meet">

<g transform="translate(0.000000,506.000000) scale(0.100000,-0.100000)"
fill="#000000" stroke="none">
<path d="M5250 3925 c-91 -8 -237 -21 -325 -29 -88 -8 -184 -12 -213 -9 -41 4
-56 2 -65 -10 -14 -19 -110 -38 -151 -30 -15 3 -58 0 -95 -7 -55 -10 -75 -19
-109 -52 -38 -35 -42 -43 -42 -88 0 -27 5 -52 10 -55 18 -11 10 -25 -14 -25
-22 0 -25 6 -31 53 -12 104 -14 107 -46 107 -75 0 -92 -48 -52 -141 l27 -61
58 6 c70 7 75 -4 21 -51 l-38 -33 39 16 c44 18 60 10 30 -14 -11 -9 -37 -38
-57 -64 l-37 -47 35 6 c23 4 35 2 35 -6 0 -6 -4 -11 -9 -11 -5 0 -19 -14 -32
-31 l-21 -31 31 -32 c26 -27 31 -40 31 -79 0 -52 16 -91 49 -121 12 -11 21
-25 21 -33 0 -18 -25 1 -148 108 -91 80 -129 105 -140 94 -4 -4 -8 -36 -9 -72
-1 -36 -5 -69 -10 -73 -4 -4 -24 -10 -44 -14 -35 -6 -35 -6 -90 79 -39 62 -67
94 -104 118 -56 37 -147 82 -187 92 -15 4 -29 14 -32 22 -7 16 4 16 90 -2 26
-6 32 -3 42 20 7 14 12 39 12 55 0 16 7 36 16 44 22 23 9 36 -38 36 -28 0 -74
-15 -142 -46 -277 -127 -282 -131 -428 -252 -88 -73 -188 -188 -188 -215 0 -9
-8 -21 -17 -24 -26 -10 -63 -53 -69 -82 -4 -14 -12 -35 -19 -46 -30 -49 -62
-227 -45 -250 7 -10 17 -72 24 -150 2 -22 9 -53 15 -68 14 -37 63 -97 78 -97
7 0 10 -7 7 -15 -8 -19 22 -65 41 -65 10 0 15 -10 15 -28 0 -31 49 -88 87
-103 13 -5 27 -19 32 -32 10 -26 123 -125 169 -148 15 -7 37 -21 50 -31 13 -9
45 -24 71 -33 26 -8 65 -31 86 -50 21 -18 54 -40 74 -48 80 -32 107 -40 136
-42 47 -2 72 -14 78 -35 8 -29 91 -64 157 -66 80 -2 80 -2 80 -23 0 -14 12
-22 48 -31 26 -7 67 -19 92 -27 25 -9 74 -17 110 -18 36 -2 93 -13 128 -24 35
-12 67 -19 73 -16 5 4 12 -1 15 -9 3 -9 11 -13 16 -10 5 4 20 1 31 -5 30 -15
194 -40 204 -31 4 4 89 -3 188 -16 208 -27 345 -33 795 -36 244 -1 333 1 355
11 17 7 77 14 135 16 121 5 403 51 605 100 749 182 1295 528 1444 915 79 204
60 385 -63 595 -50 86 -219 257 -331 336 -215 152 -501 284 -825 382 -465 141
-1231 221 -1720 182z m-220 -892 c30 -34 32 -40 25 -87 -9 -74 -45 -141 -76
-141 -33 0 -35 25 -5 70 33 48 33 85 1 115 -27 25 -33 65 -12 73 25 11 36 6
67 -30z m-792 -20 c2 -12 -2 -31 -8 -43 -9 -17 -19 -21 -53 -18 -52 4 -60 26
-22 63 32 33 78 32 83 -2z m3284 17 c20 -6 50 -26 67 -46 27 -30 31 -42 31
-94 l0 -60 -80 0 -80 0 0 44 c0 49 -13 65 -36 45 -9 -8 -14 -25 -12 -48 3 -37
2 -36 134 -131 71 -51 88 -87 88 -184 0 -85 -11 -119 -48 -146 -62 -45 -175
-53 -246 -17 -63 32 -80 60 -87 145 l-6 72 82 0 81 0 0 -48 c0 -56 17 -86 43
-76 13 5 17 18 17 54 0 56 -3 60 -107 132 -93 66 -113 100 -113 196 0 81 23
126 80 154 40 20 134 24 192 8z m-2060 -315 c26 -170 47 -316 48 -322 0 -10
-23 -13 -85 -13 l-85 0 0 38 c0 67 -9 82 -46 82 l-34 0 0 -60 0 -60 -90 0
c-89 0 -90 0 -85 23 2 12 21 141 40 287 19 146 38 282 41 303 l6 38 121 -3
122 -3 47 -310z m398 293 c66 -33 73 -56 78 -244 6 -229 -2 -307 -38 -347
l-28 -32 -166 -3 -166 -3 0 325 0 326 138 0 c123 0 143 -2 182 -22z m354 5 c3
-10 12 -70 21 -133 9 -63 17 -119 19 -125 2 -5 11 54 21 133 l19 142 113 0
113 0 0 -325 0 -325 -80 0 -80 0 -1 188 -1 187 -24 -175 c-13 -96 -23 -181
-24 -187 0 -9 -18 -13 -54 -13 l-54 0 -11 83 c-7 45 -18 125 -25 177 l-13 95
-7 -177 -8 -178 -74 0 -74 0 0 325 0 325 109 0 c96 0 110 -2 115 -17z m536
-308 l0 -325 -85 0 -85 0 0 325 0 325 85 0 85 0 0 -325z m252 188 l46 -138 1
138 1 137 70 0 70 0 0 -325 0 -325 -74 0 -75 0 -26 88 c-55 184 -53 183 -54
40 l-1 -128 -75 0 -75 0 0 325 0 325 73 0 73 0 46 -137z m-3058 84 c34 -23 43
-60 22 -92 -21 -32 -46 -33 -46 -1 0 39 -26 51 -104 50 -109 -1 -206 -49 -206
-104 0 -47 42 -75 181 -120 105 -35 141 -57 159 -100 17 -40 0 -80 -53 -125
-100 -86 -264 -128 -352 -91 -35 15 -44 37 -26 64 6 11 19 11 67 1 50 -10 69
-9 124 5 119 31 202 105 155 139 -9 7 -64 28 -121 46 -84 26 -113 41 -150 74
-94 87 -72 173 63 241 53 26 103 35 185 32 51 -2 85 -8 102 -19z m880 0 c34
-23 43 -60 22 -92 -21 -32 -46 -33 -46 -1 0 39 -26 51 -104 50 -109 -1 -206
-49 -206 -104 0 -47 42 -75 181 -120 105 -35 141 -57 159 -100 17 -40 0 -80
-53 -125 -100 -86 -264 -128 -352 -91 -35 15 -44 37 -26 64 6 11 19 11 67 1
50 -10 69 -9 124 5 120 31 206 109 154 140 -13 8 -206 76 -240 86 -1 0 -5 -11
-8 -25 -9 -34 -181 -206 -228 -228 -73 -34 -127 -17 -164 53 -15 28 -19 57
-19 142 0 93 3 110 21 135 12 15 31 30 44 31 22 4 22 3 14 -80 -14 -143 -1
-218 39 -226 32 -6 110 43 194 122 46 43 83 83 83 89 0 6 -12 23 -26 38 -33
35 -45 87 -29 126 20 47 103 103 182 123 58 14 187 6 217 -13z m-1470 -332
c-4 -18 1 -37 20 -65 30 -46 47 -50 65 -17 7 13 21 28 31 35 17 10 20 8 27
-18 9 -34 29 -36 25 -2 -1 12 2 22 8 22 11 0 14 -50 2 -65 -12 -16 -113 -75
-130 -75 -4 0 -19 18 -31 41 -26 46 -42 169 -22 169 7 0 9 -9 5 -25z"/>
<path d="M5282 2756 c-18 -141 -17 -146 16 -146 l28 0 -13 116 c-6 64 -14 118
-16 120 -2 2 -9 -38 -15 -90z"/>
<path d="M5710 2705 c0 -170 3 -215 13 -215 33 0 37 23 37 221 0 204 -1 209
-41 209 -5 0 -9 -91 -9 -215z"/>
<path d="M3890 3685 c-7 -8 -10 -22 -6 -30 3 -8 1 -15 -4 -15 -19 0 -10 -27
13 -37 19 -9 25 -6 49 31 15 22 24 43 20 47 -18 16 -60 18 -72 4z"/>
</g>
</svg>
